#N canvas 459 102 1014 587 12;
#X obj -1008 175 hradio 15 1 0 14 ats-ts empty time_scaler 0 -8 0 10
-4032 -1 -1 0;
#X text -954 189 X;
#N canvas 744 271 450 300 ats-defaults 0;
#X obj 31 -33 loadbang;
#X obj 49 93 s amp;
#X msg 49 50 0.25;
#X obj 86 148 s interp;
#X msg 86 122 5;
#X obj 31 0 t b b b b b;
#X msg 31 175 \; pd dsp 1 \;;
#X obj 133 -34 inlet;
#X msg 68 28 start;
#X obj 66 71 s st;
#X msg 156 64 1;
#X obj 156 87 s scaler_r;
#X connect 0 0 5 0;
#X connect 2 0 1 0;
#X connect 4 0 3 0;
#X connect 5 0 6 0;
#X connect 5 1 2 0;
#X connect 5 2 8 0;
#X connect 5 3 4 0;
#X connect 5 4 10 0;
#X connect 7 0 5 0;
#X connect 8 0 9 0;
#X connect 10 0 11 0;
#X restore -1008 240 pd ats-defaults;
#X obj -1008 206 bng 15 250 50 0 empty empty empty 17 7 0 10 -45076
-1 -1;
#N canvas 740 374 450 300 ats-openfile 0;
#X obj 120 55 openpanel;
#X msg 120 82 open \$1;
#X obj 120 24 inlet;
#X obj 120 166 outlet;
#X obj 120 108 t a a;
#X msg 120 141 nosines;
#X connect 0 0 1 0;
#X connect 1 0 4 0;
#X connect 2 0 0 0;
#X connect 4 0 5 0;
#X connect 4 1 3 0;
#X connect 5 0 3 0;
#X restore -1142 206 pd ats-openfile;
#X obj -1142 174 bng 15 250 50 0 empty empty empty 17 7 0 10 -159808
-1 -1;
#X obj -1142 345 output~;
#N canvas 392 224 450 300 ats-myreader 0;
#X obj 122 97 atsread;
#N canvas 400 215 455 418 ats-tp1 0;
#N canvas 66 92 524 583 tp 0;
#X obj 141 27 inlet;
#X obj 117 111 unpack f f f;
#X floatatom 117 141 5 0 0 3 dur. - -, f 5;
#X floatatom 281 108 5 0 0 3 npar. - -, f 5;
#X floatatom 436 108 5 0 0 3 type - -, f 5;
#X obj 133 271 * 1000;
#X msg 133 300 add2 \$1;
#X msg 169 376 addcomma;
#X msg 185 406 add2 0 0;
#X msg 150 338 add2 \$1;
#X obj 115 513 outlet;
#X msg 115 483 0 0 \, 4.16002 4160.02;
#X msg 203 448 set;
#X obj 436 440 outlet;
#X obj 115 183 t b f f b b b;
#X obj 281 444 outlet;
#X text 77 24 get data;
#X obj 117 84 list;
#X obj 279 37 inlet;
#X obj 279 64 t b f;
#X text 222 8 scale time and send output;
#X connect 0 0 17 1;
#X connect 1 0 2 0;
#X connect 1 1 3 0;
#X connect 1 2 4 0;
#X connect 2 0 14 0;
#X connect 3 0 15 0;
#X connect 4 0 13 0;
#X connect 5 0 6 0;
#X connect 6 0 11 0;
#X connect 7 0 11 0;
#X connect 8 0 11 0;
#X connect 9 0 11 0;
#X connect 11 0 10 0;
#X connect 12 0 11 0;
#X connect 14 0 11 0;
#X connect 14 1 5 0;
#X connect 14 2 9 0;
#X connect 14 3 7 0;
#X connect 14 4 8 0;
#X connect 14 5 12 0;
#X connect 17 0 1 0;
#X connect 18 0 19 0;
#X connect 19 0 17 0;
#X connect 19 1 5 1;
#X restore 217 154 pd tp;
#X obj 301 98 * 250;
#X obj 301 72 + 1;
#X floatatom 301 135 5 0 0 0 - - -, f 5;
#X obj 217 45 inlet;
#X obj 217 243 line;
#X obj 248 394 outlet;
#X obj 301 43 r ats-ts;
#X obj 217 76 t f f;
#X obj 101 239 unpack f f f;
#X obj 42 289 select \$1;
#X obj 217 269 t f f;
#X obj 42 351 s rein;
#X msg 42 324 reinit;
#X connect 0 0 5 0;
#X connect 1 0 3 0;
#X connect 2 0 1 0;
#X connect 3 0 0 1;
#X connect 4 0 8 0;
#X connect 5 0 11 0;
#X connect 7 0 2 0;
#X connect 8 0 0 0;
#X connect 8 1 9 0;
#X connect 9 0 10 1;
#X connect 10 0 13 0;
#X connect 11 0 10 0;
#X connect 11 1 6 0;
#X connect 13 0 12 0;
#X restore 313 77 pd ats-tp1;
#X obj 122 51 inlet;
#X obj 149 171 outlet;
#X connect 0 3 3 0;
#X connect 0 5 1 0;
#X connect 1 0 0 0;
#X connect 2 0 0 0;
#X restore -1142 239 pd ats-myreader;
#N canvas 554 199 290 404 ats-noisynth 0;
#X obj 164 195 r interp;
#X obj 98 257 outlet~;
#X obj 131 115 inlet;
#X obj 98 223 ats_noisy~;
#X obj 45 203 r st;
#X obj 98 146 r rein;
#X obj 187 118 r bwscal;
#X connect 0 0 3 2;
#X connect 2 0 3 1;
#X connect 3 0 1 0;
#X connect 4 0 3 0;
#X connect 5 0 3 0;
#X connect 6 0 3 0;
#X restore -1142 307 pd ats-noisynth;
#N canvas 66 82 1301 714 ats-transform 0;
#X obj 119 34 inlet;
#X obj 145 537 outlet;
#X obj 187 231 tabread band_amplitudes;
#X obj 119 69 t b a b;
#X obj 141 122 list-drip;
#X obj 187 203 counter;
#X obj 146 317 f;
#X obj 141 160 t b f b;
#X obj 169 356 *;
#X obj 169 472 list-extend;
#X obj 164 92 s res;
#X obj 209 160 r res;
#X obj 243 447 r res;
#X obj 272 142 s listout;
#X obj 145 503 list;
#X obj 89 471 r listout;
#X obj 169 425 *;
#X obj 187 398 r scaler_s;
#X connect 0 0 3 0;
#X connect 2 0 8 1;
#X connect 3 1 4 0;
#X connect 3 2 10 0;
#X connect 4 0 7 0;
#X connect 4 1 13 0;
#X connect 5 0 2 0;
#X connect 6 0 8 0;
#X connect 7 0 6 0;
#X connect 7 1 6 1;
#X connect 7 2 5 0;
#X connect 8 0 16 0;
#X connect 9 0 14 1;
#X connect 11 0 5 2;
#X connect 12 0 9 1;
#X connect 14 0 1 0;
#X connect 15 0 14 0;
#X connect 16 0 9 0;
#X connect 17 0 16 1;
#X restore -1141 278 pd ats-transform;
#N canvas 0 0 450 300 (subpatch) 0;
#X array band_amplitudes 25 float 5 black black;
#A 0 0.82 0.18 0.0119997 0 0.852 0.296 0.044 0.00399998 0 0 0 0 0 0
0.64 0 0.868 0.048 0 0 0 0 0 0 0;
#X coords 0 1 24 0 500 250 1;
#X restore -677 242 graph;
#N canvas 664 227 450 300 reset_band_amplitudes 0;
#X msg -762 -43 \; band_amplitudes const 0;
#X obj -762 -81 inlet;
#X connect 1 0 0 0;
#X restore -674 203 pd reset_band_amplitudes;
#X obj -674 179 bng 15 250 50 0 empty empty reset_band_amplitudes 17
7 0 10 -258113 -1 -1;
#X obj -725 255 vsl 15 220 1 100 0 0 scaler_s scaler_r scaler 0 -9
0 10 -258113 -1 -1 0 1;
#X floatatom -725 515 5 0 0 0 - - -, f 5;
#X text -1157 -2 ATS RESIDUAL data transformation EXAMPLE BY PABLO
DI LISCIA odiliscia@unq.edu.ar Programa de Investigacion "Sistemas
Temporales y Sintesis Espacial en el Arte Sonoro" http://stseas.web.unq.edu.ar/
odiliscia@unq.edu.ar This example shows how to scale separatedly the
amplitude of the 25 noise bands of an ATS analysis. The table at the
right will handle amplitude Vs band number for the residual part.;
#X connect 3 0 2 0;
#X connect 4 0 7 0;
#X connect 5 0 4 0;
#X connect 7 0 9 0;
#X connect 8 0 6 0;
#X connect 8 0 6 1;
#X connect 9 0 8 0;
#X connect 12 0 11 0;
#X connect 13 0 14 0;
