#N canvas 114 103 692 578 12;
#X declare -path ../externals;
#X obj 197 164 hradio 15 1 0 14 ats-ts empty time_scaler 0 -8 0 10
-4032 -1 -1 0;
#X text 261 182 X;
#N canvas 669 278 450 300 ats-defaults 0;
#X obj 31 -33 loadbang;
#X obj 49 93 s amp;
#X msg 49 50 0.25;
#X obj 86 148 s interp;
#X msg 86 122 5;
#X obj 31 0 t b b b b b;
#X msg 31 175 \; pd dsp 1 \;;
#X obj 133 -34 inlet;
#X msg 131 49 1;
#X obj 215 77 s bwr;
#X obj 131 79 s ampscalr;
#X msg 215 45 0.05;
#X msg 322 47 1;
#X obj 322 78 s frqr;
#X connect 0 0 5 0;
#X connect 2 0 1 0;
#X connect 4 0 3 0;
#X connect 5 0 6 0;
#X connect 5 1 2 0;
#X connect 5 3 4 0;
#X connect 5 4 8 0;
#X connect 5 4 11 0;
#X connect 5 4 12 0;
#X connect 7 0 5 0;
#X connect 8 0 10 0;
#X connect 11 0 9 0;
#X connect 12 0 13 0;
#X restore 199 215 pd ats-defaults;
#X obj 199 197 bng 15 250 50 0 empty empty empty 17 7 0 10 -45076 -1
-1;
#N canvas 736 384 450 300 ats-openfile 0;
#X obj 120 55 openpanel;
#X msg 120 82 open \$1;
#X obj 120 24 inlet;
#X obj 120 166 outlet;
#X obj 120 108 t a a;
#X msg 120 141 noise \, sines;
#X connect 0 0 1 0;
#X connect 1 0 4 0;
#X connect 2 0 0 0;
#X connect 4 0 5 0;
#X connect 4 1 3 0;
#X connect 5 0 3 0;
#X restore 50 166 pd ats-openfile;
#X obj 50 148 bng 15 250 50 0 empty empty empty 17 7 0 10 -159808 -1
-1;
#X obj 49 313 dac~;
#N canvas 192 205 450 300 ats-myreader 0;
#X obj 122 97 atsread;
#N canvas 338 204 455 418 ats-tp1 0;
#N canvas 810 87 524 583 tp 0;
#X obj 141 27 inlet;
#X obj 117 111 unpack f f f;
#X floatatom 117 141 5 0 0 3 dur. - -;
#X floatatom 281 108 5 0 0 3 npar. - -;
#X floatatom 436 108 5 0 0 3 type - -;
#X obj 133 271 * 1000;
#X msg 133 300 add2 \$1;
#X msg 169 376 addcomma;
#X msg 185 406 add2 0 0;
#X msg 150 338 add2 \$1;
#X obj 115 513 outlet;
#X msg 115 483 0 0 \, 2.51134 2511.34;
#X msg 203 448 set;
#X obj 436 440 outlet;
#X obj 115 183 t b f f b b b;
#X obj 281 444 outlet;
#X text 77 24 get data;
#X obj 117 84 list;
#X obj 279 37 inlet;
#X obj 279 64 t b f;
#X text 222 8 scale time and send output;
#X connect 0 0 17 1;
#X connect 1 0 2 0;
#X connect 1 1 3 0;
#X connect 1 2 4 0;
#X connect 2 0 14 0;
#X connect 3 0 15 0;
#X connect 4 0 13 0;
#X connect 5 0 6 0;
#X connect 6 0 11 0;
#X connect 7 0 11 0;
#X connect 8 0 11 0;
#X connect 9 0 11 0;
#X connect 11 0 10 0;
#X connect 12 0 11 0;
#X connect 14 0 11 0;
#X connect 14 1 5 0;
#X connect 14 2 9 0;
#X connect 14 3 7 0;
#X connect 14 4 8 0;
#X connect 14 5 12 0;
#X connect 17 0 1 0;
#X connect 18 0 19 0;
#X connect 19 0 17 0;
#X connect 19 1 5 1;
#X restore 217 154 pd tp;
#X msg 232 184 partials \$1;
#X obj 301 98 * 250;
#X obj 301 72 + 1;
#X floatatom 301 135 5 0 0 0 - - -;
#X obj 217 45 inlet;
#X obj 217 243 line;
#X obj 248 394 outlet;
#X obj 301 43 r ats-ts;
#X obj 101 239 unpack f f f;
#X obj 42 289 select \$1;
#X obj 217 269 t f f;
#X obj 42 351 s rein;
#X msg 42 324 reset;
#X obj 232 211 s npar;
#X obj 217 76 t a a;
#X connect 0 0 6 0;
#X connect 0 1 1 0;
#X connect 1 0 14 0;
#X connect 2 0 4 0;
#X connect 3 0 2 0;
#X connect 4 0 0 1;
#X connect 5 0 15 0;
#X connect 6 0 11 0;
#X connect 8 0 3 0;
#X connect 9 0 10 1;
#X connect 10 0 13 0;
#X connect 11 0 10 0;
#X connect 11 1 7 0;
#X connect 13 0 12 0;
#X connect 15 0 0 0;
#X connect 15 1 9 0;
#X restore 313 77 pd ats-tp1;
#X obj 122 51 inlet;
#X obj 159 307 outlet;
#X obj 122 219 outlet;
#X obj 131 247 outlet;
#X obj 140 276 outlet;
#X obj 148 156 r frq;
#X obj 131 177 *;
#X obj 194 20 inlet;
#X obj 281 16 inlet;
#X msg 281 44 set 1..100;
#X msg 194 44 set \$1..\$1;
#X connect 0 0 4 0;
#X connect 0 1 8 0;
#X connect 0 2 6 0;
#X connect 0 4 3 0;
#X connect 0 5 1 0;
#X connect 1 0 0 0;
#X connect 2 0 0 0;
#X connect 7 0 8 1;
#X connect 8 0 5 0;
#X connect 9 0 12 0;
#X connect 10 0 11 0;
#X connect 11 0 0 0;
#X connect 12 0 0 0;
#X restore 50 215 pd ats-myreader;
#N canvas 386 152 290 404 ats-noisynth 0;
#X obj 171 199 r interp;
#X obj 62 56 inlet;
#X obj 28 145 r st;
#X obj 65 145 r rein;
#X obj 98 223 ats_sinnoi~;
#X obj 120 117 r bw;
#X msg 120 143 bwscal \$1;
#X obj 106 56 inlet;
#X obj 149 56 inlet;
#X obj 194 55 inlet;
#X obj 189 283 r nscal;
#X obj 171 307 *~;
#X obj 97 308 *~;
#X obj 114 282 r dscal;
#X obj 0 203 r npar;
#X obj 136 406 outlet~;
#X connect 0 0 4 4;
#X connect 1 0 4 0;
#X connect 2 0 4 0;
#X connect 3 0 4 0;
#X connect 4 0 12 0;
#X connect 4 1 11 0;
#X connect 5 0 6 0;
#X connect 6 0 4 0;
#X connect 7 0 4 1;
#X connect 8 0 4 2;
#X connect 9 0 4 3;
#X connect 10 0 11 1;
#X connect 11 0 15 0;
#X connect 12 0 15 0;
#X connect 13 0 12 1;
#X connect 14 0 4 0;
#X restore 50 292 pd ats-noisynth;
#X obj 204 264 hsl 204 15 0 2 0 0 dscal dscalr deterministic_scaler
-2 -8 0 10 -4034 -1 -1 10150 1;
#X obj 205 317 hsl 204 15 0 2 0 0 nscal nscalr residual_scaler -2 -8
0 10 -258113 -1 -1 10150 1;
#X obj 205 375 hsl 204 15 0 1 0 0 bw bwr bandwidth_scaler -2 -8 0 10
-257985 -1 -1 1015 1;
#X obj 481 165 vsl 15 157 0 1 0 0 ampscal ampscalr det+res_scaler -30
-9 0 10 -4160 -1 -1 15600 1;
#X floatatom 481 353 5 0 0 0 - - -;
#X floatatom 201 283 5 0 0 0 - - -;
#X floatatom 203 335 5 0 0 0 - - -;
#X floatatom 202 394 5 0 0 0 - - -;
#N canvas 187 298 450 300 amps 0;
#X obj 72 119 s dscalr;
#X obj 150 119 s nscalr;
#X obj 134 58 inlet;
#X connect 2 0 1 0;
#X connect 2 0 0 0;
#X restore 481 372 pd amps;
#X obj 206 431 hsl 204 15 0.0625 2 0 0 frq frqr frequency_scaler -2
-8 0 10 -260097 -1 -1 9823 1;
#X floatatom 203 450 5 0 0 0 - - -;
#X text 13 26 atsread & ats_sinnoi~ EXAMPLE BY PABLO DI LISCIA odiliscia@unq.edu.ar
pdiliscia@iuna.edu.ar Programa de Investigacion "Sistemas Temporales
y Sintesis Espacial en el Arte Sonoro" http://stseas.web.unq.edu.ar/
odiliscia@unq.edu.ar;
#X obj 116 508 declare -path ../externals;
#X connect 3 0 2 0;
#X connect 4 0 7 0;
#X connect 5 0 4 0;
#X connect 7 0 8 0;
#X connect 7 1 8 1;
#X connect 7 2 8 2;
#X connect 7 3 8 3;
#X connect 8 0 6 0;
#X connect 8 0 6 1;
#X connect 9 0 14 0;
#X connect 10 0 15 0;
#X connect 11 0 16 0;
#X connect 12 0 13 0;
#X connect 13 0 17 0;
#X connect 18 0 19 0;
