#N canvas 530 173 574 416 12;
#X obj 271 185 hsl 204 15 0.25 2 0 0 ats-f freq frequency_scaler -2
-8 0 10 -14493 -1 -1 8700 1;
#X floatatom 271 217 5 0 0 0 - - -, f 5;
#X obj 269 132 hradio 15 1 0 14 ats-ts empty time_scaler 0 -8 0 10
-4032 -1 -1 0;
#X text 316 147 X;
#N canvas 756 241 450 300 ats-defaults 0;
#X obj 31 -33 loadbang;
#X obj 49 93 s amp;
#X obj 68 71 s freq;
#X msg 49 50 0.25;
#X msg 68 27 1;
#X obj 86 148 s interp;
#X msg 86 122 5;
#X obj 31 0 t b b b b b;
#X msg 31 175 \; pd dsp 1 \;;
#X obj 133 -34 inlet;
#X connect 0 0 7 0;
#X connect 3 0 1 0;
#X connect 4 0 2 0;
#X connect 6 0 5 0;
#X connect 7 0 8 0;
#X connect 7 1 3 0;
#X connect 7 2 4 0;
#X connect 7 3 6 0;
#X connect 9 0 7 0;
#X restore 270 294 pd ats-defaults;
#X obj 270 260 bng 15 250 50 0 empty empty empty 17 7 0 10 -45076 -1
-1;
#N canvas 742 369 450 300 ats-openfile 0;
#X obj 120 55 openpanel;
#X msg 120 82 open \$1;
#X obj 120 24 inlet;
#X obj 120 166 outlet;
#X msg 120 140 nonoise;
#X obj 120 108 t a a;
#X connect 0 0 1 0;
#X connect 1 0 5 0;
#X connect 2 0 0 0;
#X connect 4 0 3 0;
#X connect 5 0 4 0;
#X connect 5 1 3 0;
#X restore 84 158 pd ats-openfile;
#X obj 84 127 bng 15 250 50 0 empty empty empty 17 7 0 10 -159808 -1
-1;
#X obj 84 272 output~;
#N canvas 145 244 450 300 ats-detsynth 0;
#X obj 115 191 *;
#X obj 33 203 r par;
#X obj 150 198 r interp;
#X obj 98 223 oscbank~;
#X obj 233 171 r ats-f;
#X obj 98 257 outlet~;
#X obj 98 125 inlet;
#X obj 115 91 inlet;
#X obj 133 49 inlet;
#X connect 0 0 3 1;
#X connect 1 0 3 0;
#X connect 2 0 3 3;
#X connect 3 0 5 0;
#X connect 4 0 0 1;
#X connect 6 0 3 0;
#X connect 7 0 0 0;
#X connect 8 0 3 2;
#X restore 84 233 pd ats-detsynth;
#N canvas 560 312 450 300 ats-myreader 0;
#X obj 122 97 atsread;
#N canvas 135 248 450 300 ats-tp1 0;
#N canvas 66 87 524 583 tp 0;
#X obj 141 27 inlet;
#X obj 117 111 unpack f f f;
#X floatatom 117 141 5 0 0 3 dur. - -, f 5;
#X floatatom 281 108 5 0 0 3 npar. - -, f 5;
#X floatatom 436 108 5 0 0 3 type - -, f 5;
#X obj 133 271 * 1000;
#X msg 133 300 add2 \$1;
#X msg 169 376 addcomma;
#X msg 185 406 add2 0 0;
#X msg 150 338 add2 \$1;
#X obj 115 513 outlet;
#X msg 115 483 0 0 \, 3.63299 12715.5;
#X msg 203 448 set;
#X obj 436 440 outlet;
#X obj 115 183 t b f f b b b;
#X obj 281 444 outlet;
#X text 77 24 get data;
#X obj 117 84 list;
#X obj 279 37 inlet;
#X obj 279 64 t b f;
#X text 222 8 scale time and send output;
#X connect 0 0 17 1;
#X connect 1 0 2 0;
#X connect 1 1 3 0;
#X connect 1 2 4 0;
#X connect 2 0 14 0;
#X connect 3 0 15 0;
#X connect 4 0 13 0;
#X connect 5 0 6 0;
#X connect 6 0 11 0;
#X connect 7 0 11 0;
#X connect 8 0 11 0;
#X connect 9 0 11 0;
#X connect 11 0 10 0;
#X connect 12 0 11 0;
#X connect 14 0 11 0;
#X connect 14 1 5 0;
#X connect 14 2 9 0;
#X connect 14 3 7 0;
#X connect 14 4 8 0;
#X connect 14 5 12 0;
#X connect 17 0 1 0;
#X connect 18 0 19 0;
#X connect 19 0 17 0;
#X connect 19 1 5 1;
#X restore 135 156 pd tp;
#X msg 152 183 partials \$1;
#X obj 219 100 * 250;
#X obj 219 75 + 1;
#X floatatom 219 138 5 0 0 0 - - -, f 5;
#X obj 152 210 s par;
#X obj 135 48 inlet;
#X obj 135 245 line;
#X obj 135 280 outlet;
#X obj 219 45 r ats-ts;
#X connect 0 0 7 0;
#X connect 0 1 1 0;
#X connect 1 0 5 0;
#X connect 2 0 4 0;
#X connect 3 0 2 0;
#X connect 4 0 0 1;
#X connect 6 0 0 0;
#X connect 7 0 8 0;
#X connect 9 0 3 0;
#X restore 309 77 pd ats-tp1;
#X obj 122 51 inlet;
#X obj 140 225 outlet;
#X obj 131 259 outlet;
#X obj 122 293 outlet;
#X obj 183 49 r timeslid;
#X connect 0 0 5 0;
#X connect 0 1 4 0;
#X connect 0 2 3 0;
#X connect 0 5 1 0;
#X connect 1 0 0 0;
#X connect 2 0 0 0;
#X connect 6 0 0 0;
#X restore 84 196 pd ats-myreader;
#X text 80 19 atsread & oscbank~ EXAMPLE BY PABLO DI LISCIA odiliscia@unq.edu.ar
pdiliscia@iuna.edu.ar Programa de Investigacion "Sistemas Temporales
y Sintesis Espacial en el Arte Sonoro" http://stseas.web.unq.edu.ar/
odiliscia@unq.edu.ar;
#X connect 0 0 1 0;
#X connect 5 0 4 0;
#X connect 6 0 10 0;
#X connect 7 0 6 0;
#X connect 9 0 8 0;
#X connect 9 0 8 1;
#X connect 10 0 9 0;
#X connect 10 1 9 1;
#X connect 10 2 9 2;
